<svg xmlns="http://www.w3.org/2000/svg" viewBox="0 0 720 158.32"><defs><style>.cls-1{fill:#fff;}.cls-2{fill:#c65bff;}</style></defs><g id="Layer_2" data-name="Layer 2"><g id="Layer_1-2" data-name="Layer 1"><path class="cls-1" d="M79.16,0A79.16,79.16,0,0,0,0,79.16,79.16,79.16,0,0,0,79.16,0"/><path class="cls-1" d="M0,79.16H0a79.16,79.16,0,0,0,79.16,79.16A79.16,79.16,0,0,0,0,79.16"/><path class="cls-1" d="M79.16,158.32a79.16,79.16,0,0,0,79.16-79.16h0a79.16,79.16,0,0,0-79.16,79.16"/><path class="cls-2" d="M125.77,63.75A29.83,29.83,0,1,0,95.94,33.92a29.84,29.84,0,0,0,29.83,29.83"/><path class="cls-1" d="M199.7,23.18h37.11q23.34,0,39.08,15.15t15.74,38.21q0,23.07-15.74,38.22t-39.08,15.15H199.7Zm70.87,53.36a35,35,0,0,0-9.9-25,31.68,31.68,0,0,0-23.86-10.46H219.92V112h16.89a31.75,31.75,0,0,0,23.86-10.39,35,35,0,0,0,9.9-25"/><path class="cls-1" d="M391.92,88.63a41.86,41.86,0,0,1-1.11,9h-66.5a22,22,0,0,0,8.2,12.16,23.43,23.43,0,0,0,14.87,5.07,21.58,21.58,0,0,0,10.95-2.78,21.88,21.88,0,0,0,7.54-6.88h21.95a38.71,38.71,0,0,1-15.49,19.77,44.05,44.05,0,0,1-24.95,7.4q-18.61,0-31.65-12.61t-13-31.1q0-18.48,13.09-31t31.86-12.54A43.13,43.13,0,0,1,379,57.75a41.57,41.57,0,0,1,13,30.88m-67.33-8h45.72a23.23,23.23,0,0,0-7.64-13.16,21.88,21.88,0,0,0-15-5.32,23.18,23.18,0,0,0-23.07,18.48"/><path class="cls-1" d="M471.19,73H451.6a10.23,10.23,0,0,0-4-8.61q-4-3.06-10.67-3.06-6.39,0-9.58,2.5a7.82,7.82,0,0,0-3.2,6.46,7,7,0,0,0,3.68,6.32,21.88,21.88,0,0,0,9.24,2.78,112.3,112.3,0,0,1,12,1.91,94.57,94.57,0,0,1,12,3.34,18.46,18.46,0,0,1,9.24,7.54q3.67,5.56,3.68,14.24,0,12.93-10.32,19.42t-26.65,6.5q-16.05,0-25.81-7.61t-9.76-20.32h19.8a9.86,9.86,0,0,0,4.41,8.34q4.41,3.19,11.36,3.19,7.23,0,11.57-2.47a7.72,7.72,0,0,0,4.35-7,7.38,7.38,0,0,0-3.69-6.67A20.61,20.61,0,0,0,440,97a119.87,119.87,0,0,1-11.88-1.7,82.88,82.88,0,0,1-11.88-3.13,18.06,18.06,0,0,1-9.17-7.46q-3.69-5.57-3.69-14.39,0-12.23,9-18.72t24.59-6.5q15.92,0,25.09,7.44T471.19,73"/><path class="cls-1" d="M509.3,47.5V60.77h.28a35,35,0,0,1,10.94-11.11A29.38,29.38,0,0,1,537,45.07a42.5,42.5,0,0,1,31,12.54q12.75,12.54,12.75,31.16T568,119.8a42.5,42.5,0,0,1-31,12.54q-16.81,0-27.45-14.38h-.28v36.26H489.08V47.5Zm0,41.27a24.65,24.65,0,0,0,7.33,17.89,25,25,0,0,0,35.65,0,25.45,25.45,0,0,0,0-35.88,25.11,25.11,0,0,0-35.68,0,24.75,24.75,0,0,0-7.3,18"/><path class="cls-1" d="M595.59,37.84a11.84,11.84,0,0,1,0-16.81,11.51,11.51,0,0,1,8.48-3.54A11.37,11.37,0,0,1,612.51,21a11.89,11.89,0,0,1,0,16.81,11.35,11.35,0,0,1-8.44,3.55,11.48,11.48,0,0,1-8.48-3.55M594,47.5h20.22v82.41H594Z"/><path class="cls-1" d="M699.78,129.91V116.7h-.28a34.73,34.73,0,0,1-10.94,11.09,29.59,29.59,0,0,1-16.5,4.55,42.51,42.51,0,0,1-31-12.54q-12.75-12.54-12.75-31.17,0-18.48,12.75-31a42.51,42.51,0,0,1,31-12.54q16.82,0,27.44,14.38h.28v-12H720v82.41Zm0-41.28a24.5,24.5,0,0,0-7.33-17.85,25,25,0,0,0-35.64,0,25.41,25.41,0,0,0,0,35.85,25,25,0,0,0,35.68,0,24.84,24.84,0,0,0,7.29-18"/></g></g></svg>